<svg width="46" height="47" viewBox="0 0 46 47" fill="none" xmlns="http://www.w3.org/2000/svg">
<path d="M20.3554 21.5812C20.2343 21.7071 20.1409 21.8508 20.0593 22.0013L19.9725 22.1833C19.9626 22.2075 19.953 22.2307 19.9437 22.2531C19.7336 22.7605 19.9296 23.3634 19.7958 23.896L19.0279 26.9539C19.0129 27.0134 19.005 27.0752 19.0043 27.1365V27.1365C19.0019 27.3396 19.1565 27.5134 19.3589 27.5308V27.5308C19.4557 27.5391 19.5532 27.5291 19.6464 27.5013L23.0234 26.4959C23.3642 26.5343 23.6672 26.4829 23.9764 26.3461L24.1514 26.2571C24.2948 26.1723 24.4343 26.0751 24.5554 25.9492L30.5376 19.7277C30.9098 19.3406 30.9098 18.7286 30.5376 18.3415L27.7261 15.4175C27.3327 15.0084 26.678 15.0083 26.2845 15.4173L20.3554 21.5812Z" fill="white"/>
<path d="M34.1885 13.1955L32.8052 11.8119C31.7859 10.7924 30.2022 10.7241 29.2673 11.6576L28 12.9251L33.0739 18L34.3412 16.7309C35.2761 15.7989 35.2077 14.2149 34.1885 13.1955Z" fill="white"/>
<path d="M30.7368 23.7948V33.7898H13.6316V13.2635H25.0066C25.2665 13.2635 25.5162 13.1623 25.7028 12.9814L27.4158 11.3203C27.6289 11.1 27.8803 11.0179 28.1461 10.9193V10.9193C28.2108 10.733 28.1173 10.5266 27.92 10.5266H12C11.4477 10.5266 11 10.9743 11 11.5266V35.5266C11 36.0789 11.4477 36.5266 12 36.5266H32.3684C32.9207 36.5266 33.3684 36.0789 33.3684 35.5266V21.3755L30.7368 23.7948Z" fill="white"/>
<circle cx="23" cy="23.5266" r="21.16" stroke="white" stroke-width="3.68"/>
</svg>
