<svg width="42" height="42" viewBox="0 0 42 42" fill="none" xmlns="http://www.w3.org/2000/svg">
<path fill-rule="evenodd" clip-rule="evenodd" d="M21 4.2C11.7216 4.2 4.2 11.7216 4.2 21C4.2 30.2784 11.7216 37.8 21 37.8C30.2784 37.8 37.8 30.2784 37.8 21C37.8 11.7216 30.2784 4.2 21 4.2ZM0 21C0 9.40202 9.40202 0 21 0C32.598 0 42 9.40202 42 21C42 32.598 32.598 42 21 42C9.40202 42 0 32.598 0 21ZM17.4151 13.2151C18.2352 12.395 19.5648 12.395 20.3849 13.2151L26.6849 19.5151C27.505 20.3352 27.505 21.6648 26.6849 22.4849L20.3849 28.7849C19.5648 29.605 18.2352 29.605 17.4151 28.7849C16.595 27.9648 16.595 26.6352 17.4151 25.8151L22.2302 21L17.4151 16.1849C16.595 15.3648 16.595 14.0352 17.4151 13.2151Z" fill="white"/>
</svg>
